<?xml version="1.0" encoding="UTF-8" standalone="no"?>

<svg
   version="1.1"
   id="svg1"
   width="32"
   height="32"
   viewBox="0 0 32 32">
  <g
     id="g1">
    <path
       style=""
       d="m 15,1.9921875 h 2.003906 V 3.0039063 H 18 v 0.9999999 h 1.003906 v 1.0039063 h 1 v 0.9960937 h 1 V 7 h 1 V 8 H 23 v 1.0078125 h 1 V 10 h 1 v 2.003906 H 24.003906 V 13 H 22 V 12 H 21.003906 V 10.996094 H 20 V 9.9960938 H 19 V 9.0039063 H 18 V 29 h -1 v 1 H 15 V 28.992187 H 13.996094 V 8.9960938 H 12.992188 V 10 H 12 v 1.007813 H 10.996094 V 12 H 10 v 1.007813 H 8 V 12 H 6.9960937 V 10 H 8.0078125 V 8.9960938 H 9 V 7.9960937 h 1 v -1 h 1 v -1 h 1.007813 V 5 h 1 V 3.9960938 h 0.996093 v -1 H 15 Z"
       id="path1" />
  </g>
</svg>
