<?xml version="1.0" encoding="UTF-8" standalone="no"?>

<svg
   version="1.1"
   id="svg1"
   width="32"
   height="32"
   viewBox="0 0 32 32">
  <g
     id="g1">
    <path
       style=""
       d="m 16.996094,30 h -2.003906 v -1.011719 h -0.996094 v -1 h -1.003906 v -1.003906 h -1 v -0.996094 h -1 V 24.992188 H 9.9921876 v -1 h -0.996094 v -1.007813 h -1 v -0.992187 h -1 v -2.003906 h 0.996094 v -0.996094 h 2.003906 v 1 h 0.9960944 v 1.003906 h 1.003906 v 1 h 1 v 0.992187 h 1 V 2.9921876 h 1 v -1 h 2 v 1.007813 H 18 V 22.996094 h 1.003906 v -1.003906 h 0.992188 V 20.984375 H 21 v -0.992187 h 0.996094 v -1.007813 h 2 v 1.007813 H 25 v 2 h -1.011719 v 1.003906 h -0.992187 v 1 h -1 v 1 h -1 v 1 h -1.007813 v 0.996094 h -1 v 1.003906 h -0.996093 v 1 h -0.996094 z"
       id="path1" />
  </g>
</svg>
