<?xml version="1.0" encoding="UTF-8" standalone="no"?>

<svg
   version="1.1"
   id="svg1"
   width="32"
   height="32"
   viewBox="0 0 32 32">
   <g>
    <path
       id="path1025"
       style="display:inline;"
       d="M 7.0039062,4.9960938 7,6 H 6.0039062 V 6.9960938 H 5 V 24.992188 h 0.9921875 v 1.003906 H 6.9960938 V 27 H 24.996094 v -0.996094 h 1 V 25 h 1.007812 V 7.0039062 h -1 v -1 h -1 V 4.9960938 Z M 13.996094,9.9882812 18,10 v 0.996094 h 2 v 1 h 0.996094 v 2.007812 h 1.007812 V 18 h -1 v 1.996094 h -0.996094 v 1 h -2.003906 v 1.007812 H 14 v -1 h -1.992188 v -1 H 11 V 18.007812 H 9.9921875 V 14 h 1.0039065 v -1.996094 h 0.996094 v -1 h 2.003906 c 0,0 0.01563,-0.96875 0,-1.0156248 z m 0,3.0039068 L 14,14 h -1.003906 v 3.992188 h 1.007812 v 1.011718 H 18 v -1 h 1 v -3.996094 h -1 v -1.015624 z" />
    <path
       style=""
       d="m 13.998919,12.991688 h 4.003906 v 1.015625 h 1 v 3.996093 h -1 v 1 H 14.006731 V 17.991687 H 12.998919 V 13.9995 h 1.003906 z"
       id="path1027" />
    <path
       style=""
       d="m 21,0 v 4 h 2.003906 V 0.0078125 Z"
       id="path1028" />
    <path
       style=""
       d="M 14.996094,0.00390625 V 4 h 2.007812 V 0.00390625 Z"
       id="path1029" />
    <path
       style=""
       d="M 9,0.00390625 V 4.0039062 h 2.003906 V 0.00390625 Z"
       id="path1030" />
    <path
       style=""
       d="m 0,9 h 4.0039062 v 2.007813 H 0.0078125 Z"
       id="path1031" />
    <path
       style=""
       d="M -0.00390625,15 H 4.0078125 v 2 H 0.00390625 Z"
       id="path1032" />
    <path
       style=""
       d="M 0.00390625,20.996094 H 4.0078125 v 2.011718 H 0 Z"
       id="path1033" />
    <path
       style=""
       d="m 8.9960938,28 h 2.0078122 v 4.007812 H 9.0039063 Z"
       id="path1034" />
    <path
       style=""
       d="m 14.996094,27.992187 v 4.015625 h 2 V 28 Z"
       id="path1035" />
    <path
       style=""
       d="m 20.996094,27.992187 v 4.011719 H 23 v -4.007812 z"
       id="path1036" />
    <path
       style=""
       d="m 31.996094,20.992187 v 2.011719 h -3.992188 v -2.007812 z"
       id="path1037" />
    <path
       style=""
       d="m 32,14.992188 v 2.011718 h -4.003906 v -2.011718 z"
       id="path1038" />
    <path
       style=""
       d="m 31.996094,8.9960938 v 2.0078122 h -4 V 8.9921875 Z"
       id="path1039" />
  </g>
</svg>
