<?xml version="1.0" encoding="UTF-8" standalone="no"?>

<svg
   version="1.1"
   id="svg1"
   width="32"
   height="32"
   viewBox="0 0 32 32">
  <g
     id="g1">
    <path
       id="path1"
       style="display:inline;"
       d="m 5.9960938,5.9921875 0.023437,1.0039063 h -2.015625 v 1 h -1 v 2 H 2.0078125 V 14 H 1.0039062 v 3.996094 h -1.0117187 v 5.007812 H 1 v 0.992188 h 1.0039062 v 1.007812 H 3.9921875 V 26 h 2.0039063 v 1.007812 H 9 v -1.011718 h 1 V 24.007812 H 8.9960938 v -1.015624 l 1.0117182,0.01172 v 0.992188 h 0.988282 v 1.007812 h 9.996094 v -1.007812 h 1.003906 v -1 l 1.011718,-0.0078 v 1.015625 H 22 V 26 h 0.992188 v 1 h 3 V 26 H 28 v -1 h 1.996094 v -1 h 1.007812 V 23.003906 H 32 V 18 h -0.996094 v -3.992188 h -1 v -4 h -1 V 8.0078125 h -1 V 7.0039062 H 25.996094 V 5.9960938 H 20.003906 V 6.9921875 H 19 v 1.015625 H 13 V 7 H 12 V 5.9921875 Z m 1.015625,2 H 11 v 1.0117187 h 1 v 1.0039058 h 8.007812 V 8.9960938 h 1 v -1 h 3.996094 v 1.0078124 h 2.003906 V 11 H 28 v 4.007812 h 1 v 4 h 1.007812 v 2.996094 h -1.015624 v 1.003906 h -2 V 24 H 26 v 1.011719 H 23.992188 V 23.996094 H 25 v -2.007813 h -1 v -1 h -3.003906 v 1.019531 h -1.003906 v 0.996094 h -8 v -1.007812 h -1 v -1 L 8,20.992188 v 1.019531 H 7 v 1.992187 h 1.0078125 v 1.007813 H 6.0039062 V 24 H 5 V 22.996094 H 3 V 22 H 2.0078125 v -3 h 1 V 15 H 4.0039062 V 11 H 5.0117188 V 9 h 2 z" />
    <path
       id="path2"
       style=""
       d="m 9.9921875,14.996094 0.00781,1 H 8.9960938 L 9,19 h 1.003906 L 10,20.011719 h 3.011719 v -1.015625 h -3.003907 v -2.980469 h 2.996094 l -0.0078,2.976563 H 14 v -3 h -0.996094 v -0.996094 z" />
    <path
       id="path2-3"
       style=""
       d="m 18.996094,15 0.0078,1 H 18 l 0.0039,3.003906 h 1.003906 l -0.0039,1.011719 h 3.011719 V 19 h -3.003907 v -2.980469 h 2.996094 l -0.0078,2.976563 h 1.003894 v -3 H 22.007812 V 15 Z" />
  </g>
</svg>
