<?xml version="1.0" encoding="UTF-8" standalone="no"?>

<svg
   version="1.1"
   id="svg1"
   width="32"
   height="32"
   viewBox="0 0 32 32">
  <g
     id="g1">
    <path
       id="path1"
       style="display:inline;"
       d="M 1.9960938,7.9960938 2.0039062,9 h -1 V 9.9960938 H 0.0078125 V 19 h 0.9960937 v 2 H 2 v 1.996094 H 2.9921875 L 3,21 c 0,0 2,-0.03906 2,0 v 2 H 3 v 1 H 28.996094 V 23 H 30 v -2 h 1 v -1.996094 h 1.007812 v -9 H 31 V 9.0039062 H 30.003906 V 7.9960938 Z m 1.0039062,2 h 26 v 1.0000002 h 1 V 18 h -0.996094 v 1.003906 H 2.9921875 V 18.007812 H 1.9960938 V 11.003906 H 3 Z M 27.001953,20.996094 c 0,0 2,-0.03906 2,0 v 2 H 26.994141 Z M 6,21.001953 c 0,0 2,-0.03906 2,0 v 2 H 5.9921875 Z m 3,0 c 0,0 2,-0.03906 2,0 v 2 H 8.9921875 Z m 3,0 c 0,0 2,-0.03906 2,0 v 2 h -2.007812 z m 3,0 c 0,0 2,-0.03906 2,0 v 2 h -2.007812 z m 3.007812,0 c 0,0 2,-0.03906 2,0 v 2 H 18 Z m 2.996094,0 c 0,0 2,-0.03906 2,0 v 2 h -2.007812 z m 3.003906,0.01563 c 0,0 2,-0.03906 2,0 v 2 H 24 Z" />
    <path
       style=""
       d="m 4,12 h 3.0078125 v 1.007813 H 4 Z"
       id="path2" />
    <path
       style=""
       d="M 4.0039062,13.003906 H 3 v 3 h 0.9960938 z"
       id="path3" />
    <path
       style=""
       d="m 4.0039062,15.996094 v 1.007812 h 3 v -0.996094 z"
       id="path4" />
    <path
       style=""
       d="M 7,15.996094 H 8.0039063 V 13.003906 H 7 Z"
       id="path5" />
    <path
       style=""
       d="m 4.9921875,13.996094 h 1.015625 V 15 H 5.0039062 Z"
       id="path6" />
    <path
       style=""
       d="m 11,12 h 3.007813 v 1.007813 H 11 Z"
       id="path2-6" />
    <path
       style=""
       d="M 11.003906,13.003906 H 10 v 3 h 0.996094 z"
       id="path3-1" />
    <path
       style=""
       d="m 11.003906,15.996094 v 1.007812 h 3 v -0.996094 z"
       id="path4-5" />
    <path
       style=""
       d="m 14,15.996094 h 1.003906 V 13.003906 H 14 Z"
       id="path5-5" />
    <path
       style=""
       d="m 11.992188,13.996094 h 1.015625 V 15 h -1.003907 z"
       id="path6-4" />
    <path
       style=""
       d="m 18,12 h 3.007812 v 1.007813 H 18 Z"
       id="path2-9" />
    <path
       style=""
       d="M 18.003906,13.003906 H 17 v 3 h 0.996094 z"
       id="path3-3" />
    <path
       style=""
       d="m 18.003906,15.996094 v 1.007812 h 3 v -0.996094 z"
       id="path4-7" />
    <path
       style=""
       d="m 21,15.996094 h 1.003906 V 13.003906 H 21 Z"
       id="path5-4" />
    <path
       style=""
       d="m 18.992187,13.996094 h 1.015625 V 15 h -1.003906 z"
       id="path6-5" />
    <path
       style=""
       d="m 25,12 h 3.007812 v 1.007813 H 25 Z"
       id="path2-4" />
    <path
       style=""
       d="M 25.003906,13.003906 H 24 v 3 h 0.996094 z"
       id="path3-4" />
    <path
       style=""
       d="m 25.003906,15.996094 v 1.007812 h 3 v -0.996094 z"
       id="path4-3" />
    <path
       style=""
       d="m 28,15.996094 h 1.003906 V 13.003906 H 28 Z"
       id="path5-0" />
    <path
       style=""
       d="m 25.992187,13.996094 h 1.015625 V 15 h -1.003906 z"
       id="path6-7" />
  </g>
</svg>
