<?xml version="1.0" encoding="UTF-8" standalone="no"?>

<svg
   version="1.1"
   id="svg1"
   width="32"
   height="32"
   viewBox="0 0 32 32">
  <g
     id="g1">
    <path
       id="path1"
       style="display:inline;"
       d="M 20,-0.0078125 12,0 V 1.0117188 H 9 v 1 H 6.9882812 V 3.0078125 H 5.9960938 V 4 H 5 V 5.0078125 H 4 V 5.9960938 H 2.9960938 V 7 H 1.9921875 V 9.0078125 H 1 V 12 H 0.00390625 v 8.007812 H 1 v 3 h 1.0078125 v 1.996094 h 1.0039063 v 1.003906 H 4 v 0.996094 h 1 v 1 h 1.0078125 v 1 H 7 v 1.003906 h 2.0039062 v 0.996094 h 3.0039058 v 1 h 8.003907 v -1.007812 h 2.984375 V 30 h 2.015625 v -1 h 0.996093 v -1 h 1.003907 v -1 h 0.992187 v -1 h 1 v -1 h 1.007813 v -2.003906 h 0.996093 v -3.003906 h 1.003907 V 11.988281 H 31 V 8.9921875 h -1.003906 v -2 H 29 v -1 H 27.996094 V 4.9882812 H 26.992188 V 3.9921875 h -0.996094 v -1 h -1 V 1.9960938 H 23 V 0.98828125 h -3 z m -1,1.9960937 v 1 h 2.996094 v 1.0078126 h 1.996094 V 4.9921875 H 25 v 1.0039063 h 1 v 1 h 0.996094 v 1.0117187 h 1.007812 V 10.003906 H 29 v 2.984375 h 1.003906 v 6.007813 h -0.996094 v 3 h -0.996093 v 1.996094 h -1.003907 v 1.003906 h -0.996093 v 0.996094 h -1.003907 v 1 h -1.003906 v 1 h -1.996094 v 1.003906 h -3 v 1 h -6 v -0.992188 h -3.003906 v -1 H 8.0117188 V 27.011719 H 7 v -1 H 6.0039062 V 25.003906 H 5 V 24.011719 H 4.015625 v -2 H 3.0078125 V 19.007812 H 1.9960938 v -6.003906 h 1 v -3 h 1 V 8 h 1 V 7.0039062 H 5.9921875 V 6.0078125 h 1 V 5.0039062 H 7.9882812 V 4.0078125 h 2.0078126 v -1 H 12.996094 V 1.9960938 Z" />
    <path
       style=""
       d="m 5.9921875,10.996094 c 0,0 -0.00391,2.003906 0,2.003906 h 2.0117188 v -1 h 2.0039067 v -1.011719 h 2.996093 V 9.9960938 h 6.003906 V 11 h 3.003907 v 1.003906 h 1.996093 V 13 h 1.996094 V 10.996094 H 24.992187 V 9.9960938 H 22.988281 V 8.9882813 H 19.992187 V 7.9960937 H 11.996094 V 9.0117188 H 8.9960938 V 10.011719 H 6.9882812 v 0.992187 z"
       id="path2"  />
    <path
       style=""
       d="m 6.9921875,14.996094 v 2.007812 h 4.0156255 v -1.011718 h 2.007812 v -0.996094 h 5.996094 v 1.011718 h 1.996093 v 0.996094 h 4 v -2.007812 h -2.015625 v -1 h -2.996093 v -1.003906 h -8 v 1.019531 H 8.9921875 v 0.992187 z"
       id="path3" />
    <path
       style=""
       d="m 9,19.992187 h 1.007813 v -0.996093 h 3 V 18 h 5.996093 v 1.011719 H 22 v 0.992187 h 1.003906 v 2 H 20 V 21 h -2.003906 v -1.003906 h -4 V 21 h -2.003906 v 1 H 9.0039063 Z"
       id="path4" />
  </g>
</svg>
