<?xml version="1.0" encoding="UTF-8" standalone="no"?>

<svg
   version="1.1"
   id="svg1"
   width="32"
   height="32"
   viewBox="0 0 32 32">
  <g
     id="g1">
    <path
       id="path1"
       style="display:inline"
       d="M 17.992188,-0.00390625 13.996094,0 v 1.0117188 h -2.003906 v 0.9960937 h -0.988282 v 1 H 8.9960938 v 0.9960937 h -1 V 5.0078125 H 6 V 6.015625 H 4.9941406 V 8.0117188 H 4.0039062 c 0,0 -0.022844,0.9860664 0,0.9921874 0.022844,0.00612 -1.0039062,0 -1.0039062,0 V 11.003906 H 1.9921875 v 1.003906 H 0.99609375 v 1.996094 H 0 v 4 h 1.0078125 v 2 h 1 v 1 h 1.0039063 v 2.003906 h 1 v 0.996094 h 0.9921874 v 2.003906 h 1 v 1 h 2 v 0.996094 h 1 v 1 h 2.0039058 v 1 h 0.996094 v 1 h 2.003906 v 1 H 18 v -1.007812 h 2 v -1.003906 h 1 v -0.996094 h 2.003906 v -1 h 1 V 26.988281 H 26 v -0.992187 h 1 v -2 h 1.003906 v -1.003906 h 1 v -2.003907 h 1.003906 V 19.996094 H 31 v -2.003906 h 1 v -4 H 31 V 11.996094 H 29.988281 V 10.992188 H 28.996094 V 8.9921875 H 28 V 7.9882812 H 26.996094 V 5.9960938 h -1 v -1 h -2 V 3.9882812 H 23 V 2.9960938 H 21 V 1.9921875 H 19.996094 V 0.98828125 H 17.992188 Z M 14.996094,1.9921875 h 2.015625 v 1.015625 h 1 v 1.0039063 h 1.992187 V 5 h 1 v 1.0039062 h 2 v 1.0039063 h 2 v 1.9960937 h 1.007813 V 11 h 0.992187 v 1.007812 h 1.007813 v 2 h 1 v 0.996094 h 0.996093 v 2.003906 h -1.015624 v 1.003907 h -1.003907 v 1.992187 H 27 v 1.003906 h -1.003906 v 2 h -1.007813 v 1.996094 h -1.996093 v 1.003906 h -1.996094 v 1 h -1 v 0.996094 h -2.003906 v 1 h -1 v 1 H 15 v -1.011718 h -1.003906 v -0.996094 h -2 v -1 h -1 v -1 H 8.9921875 v -1 H 7 V 22.992188 H 6 v -2 H 4.9960938 v -1 H 4 V 17.996094 H 2.9960938 v -1 H 2 v -2 H 3.0078125 V 14 h 1 v -2 h 1 V 10.996094 H 6.0039062 V 9 H 7.0117188 V 6.9960938 H 9.0078125 V 6 H 11.007812 V 5 h 1 V 4 h 2.003907 V 3 h 1 z" />
    <path
       id="path2"
       style="display:inline"
       d="m 14.992188,9.9960938 0.01562,1.0000002 h -0.996093 v 1 h -2.003907 v 1.996094 h -1.003906 v 1 H 9.9921875 v 2.003906 H 11.003906 V 18 h 1 v 1.988281 h 1.992188 v 1.003907 H 15 v 1.011718 h 2.003906 v -1 h 0.988282 v -1 h 2.003906 v -1.996094 h 1 v -1.003906 h 1.011718 v -1.992187 h -1.003906 v -1.003907 h -1 v -2 h -2 V 11.003906 H 17.007812 V 9.9960938 Z m 0.0039,1.9960942 H 17.0039 v 1.015624 h 1.011719 v 0.996094 h 0.992187 V 15 h 1.003907 v 2.011719 H 19.0039 v 0.996093 h -1.007812 v 0.996094 h -1.003906 v 1.003906 H 14.996094 V 18.996094 H 14 v -1.011719 h -1 v -0.988281 h -0.988281 v -2 h 0.996093 v -1 h 1 V 13 h 0.996094 z" />
    <path
       style=""
       d="M 17.003906,13.996094 H 15 v 1.011719 h -1 v 1.999999 h 1.007813 v 1 h 2.003906 v -1.011718 h 0.992187 v -2 h -1 z"
       id="path3" />
  </g>
</svg>
